# AST/ASF file generated using VICON BodyLanguage
# -----------------------------------------------
:version 1.10
:name VICON
:units
  mass 1.0
  length 0.45
  angle deg
:documentation
   .ast/.asf automatically generated from VICON data using
   VICON BodyBuilder and BodyLanguage model FoxedUp or BRILLIANT.MOD
:root
   order TX TY TZ RX RY RZ
   axis XYZ
   position 0 0 0  
   orientation 0 0 0 
:bonedata
  begin
     id 1 
     name lhipjoint
     direction 0.677091 -0.635792 0.370561 
     length 2.74323 
     axis 0 0 0  XYZ
  end
  begin
     id 2 
     name lfemur
     direction 0.34202 -0.939693 0  
     length 7.44995  
     axis 0 0 20  XYZ
    dof rx ry rz
    limits (-160.0 20.0)
           (-70.0 70.0)
           (-60.0 70.0)
  end
  begin
     id 3 
     name ltibia
     direction 0.34202 -0.939693 0   
     length 7.34467   
     axis 0 0 20   XYZ
    dof rx
    limits (-10.0 170.0)
  end
  begin
     id 4 
     name lfoot
     direction 0.101953 -0.280114 0.954537   
     length 1.72105   
     axis -90 7.62852e-016 20   XYZ
    dof rx rz
    limits (-45.0 90.0)
           (-70.0 20.0)
  end
  begin
     id 5 
     name ltoes
     direction 1.53537e-011 -4.21915e-011 1   
     length 0.865872   
     axis -90 7.62852e-016 20   XYZ
    dof rx
    limits (-90.0 20.0)
  end
  begin
     id 6 
     name rhipjoint
     direction -0.695735 -0.620586 0.361699   
     length 2.81045  
     axis 0 0 0  XYZ 
  end
  begin
     id 7 
     name rfemur
     direction -0.34202 -0.939693 0   
     length 7.29387   
     axis 0 0 -20   XYZ
    dof rx ry rz
    limits (-160.0 20.0)
           (-70.0 70.0)
           (-70.0 60.0)
  end
  begin
     id 8 
     name rtibia
     direction -0.34202 -0.939693 0   
     length 7.44935   
     axis 0 0 -20   XYZ
    dof rx
    limits (-10.0 170.0)
 end
 begin
     id 9 
     name rfoot
     direction -0.104163 -0.286184 0.952496   
     length 1.77731  
     axis -90 -7.62852e-016 -20   XYZ
    dof rx rz
    limits (-45.0 90.0)
           (-20.0 70.0)
  end
  begin
     id 10 
     name rtoes
     direction -1.5355e-011 -4.21888e-011 1   
     length 0.892424   
     axis -90 -7.62852e-016 -20   XYZ
    dof rx
    limits (-90.0 20.0)
  end
  begin
     id 11 
     name lowerback
     direction 0.0100202 0.997226 -0.0737589   
     length 2.16892   
     axis 0 0 0   XYZ
    dof rx ry rz
    limits (-20.0 45.0)
           (-30.0 30.0)
           (-30.0 30.0)
  end
  begin
     id 12 
     name upperback
     direction 0.00432398 0.999988 -0.00215019   
     length 2.17326   
     axis 0 0 0   XYZ
    dof rx ry rz
    limits (-20.0 45.0)
           (-30.0 30.0)
           (-30.0 30.0)
  end
  begin
     id 13 
     name thorax
     direction -0.00195047 0.999485 0.0320434   
     length 2.18139   
     axis 0 0 0   XYZ
    dof rx ry rz
    limits (-20.0 45.0)
           (-30.0 30.0)
           (-30.0 30.0)
  end
  begin
     id 14 
     name lowerneck
     direction 0.00782762 0.986241 0.165128   
     length 1.88415   
     axis 0 0 0   XYZ
    dof rx ry rz
    limits (-20.0 45.0)
           (-30.0 30.0)
           (-30.0 30.0)
  end
  begin
     id 15 
     name upperneck
     direction 0.00988667 0.981098 -0.193258   
     length 1.9242   
     axis 0 0 0   XYZ
    dof rx ry rz
    limits (-20.0 45.0)
           (-30.0 30.0)
           (-30.0 30.0)
  end
  begin
     id 16
     name head
     direction 0.00252199 0.996513 -0.0833958  
     length 1.93887  
     axis 0 0 0   XYZ
    dof rx ry rz
    limits (-20.0 45.0)
           (-30.0 30.0)
           (-30.0 30.0)
  end
  begin
     id 17 
     name lclavicle
     direction 0.929492 0.368193 -0.0218667  
     length 3.5955  
     axis 0 0 0   XYZ
    dof ry rz
    limits (-20.0 10.0)
           (0.0 20.0)
  end
  begin
     id 18 
     name lhumerus
     direction 1 -4.48972e-011 1.41911e-027   
     length 5.2795   
     axis 180 -30 -90   XYZ
    dof rx ry rz
    limits (-60.0 90.0)
           (-90.0 90.0)
           (-90.0 90.0)
  end
  begin
     id 19
     name lradius
     direction 1 -4.48963e-011 7.05772e-027   
     length 3.53504   
     axis 180 -30 -90   XYZ
    dof rx
    limits (-10.0 170.0)
  end
  begin
     id 20
     name lwrist
     direction 1 -4.48957e-011 9.54866e-027   
     length 1.76752   
     axis -7.69462e-015 90 90   XYZ
    dof ry
    limits (-180.0 0.0)
 end
  begin
     id 21 
     name lhand
     direction 1 -4.48979e-011 1.90973e-026   
     length 0.667948   
     axis -1.21857e-014 90 90   XYZ
    dof rx rz
    limits (-90.0 90.0)
           (-45.0 45.0)
  end
  begin
     id 22 
     name lfingers
     direction 1 -4.48987e-011 3.81946e-026   
     length 0.538517   
     axis -2.43714e-014 90 90   XYZ
    dof rx
    limits (0.0 90.0)
  end
  begin
     id 23
     name lthumb
     direction 0.707107 -6.34962e-011 0.707107   
     length 0.773206   
     axis -90 45 2.85299e-015   XYZ
    dof rx rz
    limits (-45.0 45.0)
           (-45.0 45.0)
  end
  begin
     id 24 
     name rclavicle
     direction -0.898763 0.414256 -0.143584   
     length 3.5176  
     axis 0 0 0   XYZ 
    dof ry rz
    limits (-10.0 20.0)
           (-20.0 0.0)
  end
  begin
     id 25 
     name rhumerus
     direction -1 -4.48971e-011 1.129e-027  
     length 5.25035   
     axis 180 30 90   XYZ
    dof rx ry rz
    limits (-90.0 60.0)
           (-90.0 90.0)
           (-90.0 90.0)
  end
  begin
     id 26 
     name rradius
     direction -1 -4.48955e-011 6.34664e-027   
     length 3.58884   
     axis 180 30 90   XYZ
    dof rx
    limits (-10.0 170.0)
  end
  begin
     id 27 
     name rwrist
     direction -1 -4.48966e-011 9.54866e-027   
     length 1.79442   
     axis -7.69462e-015 -90 -90   XYZ
    dof ry
    limits (-180.0 0.0)
  end
  begin
     id 28
     name rhand
     direction -1 -4.48973e-011 1.90973e-026   
     length 0.779235   
     axis -1.21857e-014 -90 -90   XYZ
    dof rx rz
    limits (-90.0 90.0)
           (-45.0 45.0)
  end
  begin
     id 29
     name rfingers
     direction -1 -4.48984e-011 3.81946e-026   
     length 0.62824   
     axis -2.43714e-014 -90 -90   XYZ
    dof rx
    limits (0.0 90.0)
  end
  begin
     id 30
     name rthumb
     direction -0.707107 -6.34968e-011 0.707107   
     length 0.90203   
     axis -90 -45 -2.85299e-015   XYZ
    dof rx rz
    limits (-45.0 45.0)
           (-45.0 45.0)
  end
:hierarchy
  begin
    root lhipjoint rhipjoint lowerback
    lhipjoint lfemur
    lfemur ltibia
    ltibia lfoot
    lfoot ltoes
    rhipjoint rfemur
    rfemur rtibia
    rtibia rfoot
    rfoot rtoes
    lowerback upperback
    upperback thorax
    thorax lowerneck lclavicle rclavicle
    lowerneck upperneck
    upperneck head
    lclavicle lhumerus
    lhumerus lradius
    lradius lwrist
    lwrist lhand lthumb
    lhand lfingers
    rclavicle rhumerus
    rhumerus rradius
    rradius rwrist
    rwrist rhand rthumb
    rhand rfingers
  end

#!OML:ASF I:\Random Stuff\random\construction\7_22_03\Session 2\subj1.ASF
:FULLY-SPECIFIED
:DEGREES
474
root -9.86313 17.8047 -4.6857 -375.486 81.8956 -395.818
lowerback 16.3427 0.22735 -3.82266
upperback 6.36542 -0.025344 -2.26797
thorax -2.37023 0.107023 -0.223481
lowerneck -17.118 2.52966 2.89464
upperneck 40.1852 4.67431 -0.10559
head 17.8668 2.67444 0.473586
rclavicle -2.62396e-014 -4.45278e-014
rhumerus -11.827 28.102 -95.9996
rradius 90.1396
rwrist -15.2902
rhand -46.1718 13.0625
rfingers 7.12502
rthumb -18.9109 -16.0382
lclavicle -2.62396e-014 -4.45278e-014
lhumerus 22.7776 -42.8111 63.887
lradius 36.8857
lwrist -8.64678
lhand -38.6736 82.726
lfingers 7.12502
lthumb -11.6889 -472.38
rfemur -25.7403 4.37852 17.7342
rtibia 8.16822
rfoot 0.112926 -7.99792
rtoes -22.0834
lfemur -32.1338 -6.46946 -7.94387
ltibia 26.4668
lfoot -14.6235 14.9495
ltoes -31.1941
475
root -9.86854 17.8018 -4.68911 -375.493 81.8782 -395.865
lowerback 16.2772 0.26003 -3.66711
upperback 6.34681 0.0389707 -2.36769
thorax -2.35795 0.141366 -0.427153
lowerneck -17.0529 2.48085 3.01244
upperneck 40.2279 4.57737 -0.118311
head 17.877 2.65564 0.427814
rclavicle 3.18055e-015 2.54444e-014
rhumerus -11.6313 27.7687 -96.048
rradius 90.1508
rwrist -15.2867
rhand -45.8422 12.5207
rfingers 7.12502
rthumb -18.5939 -16.6106
lclavicle 3.18055e-015 2.54444e-014
lhumerus 23.1384 -43.2962 63.3883
lradius 36.7737
lwrist -8.20325
lhand -38.7966 82.9298
lfingers 7.12502
lthumb -11.8075 -472.577
rfemur -25.8193 4.37134 17.7377
rtibia 8.18319
rfoot 0.114282 -7.98033
rtoes -21.9327
lfemur -32.2032 -6.31597 -7.98582
ltibia 26.4897
lfoot -14.5101 14.9029
ltoes -32.0266
476
root -9.87461 17.8 -4.6916 -375.101 81.8588 -395.488
lowerback 16.2951 0.361207 -3.45854
upperback 6.26021 0.18813 -2.56338
thorax -2.46198 0.220383 -0.778117
lowerneck -16.9249 2.355 3.17541
upperneck 40.3381 4.2971 0.0307493
head 17.9009 2.59849 0.413508
rclavicle -8.74653e-015 3.33958e-014
rhumerus -11.7745 27.1684 -96.2967
rradius 90.0822
rwrist -15.1484
rhand -45.5923 12.2716
rfingers 7.12502
rthumb -18.3535 -16.8826
lclavicle -8.74653e-015 3.33958e-014
lhumerus 23.4453 -43.9075 63.026
lradius 36.5305
lwrist -7.87221
lhand -38.8257 83.044
lfingers 7.12502
lthumb -11.8355 -472.689
rfemur -25.883 4.38438 17.6886
rtibia 8.2167
rfoot 0.0959267 -7.95648
rtoes -21.9505
lfemur -32.2391 -6.13294 -8.08697
ltibia 26.4913
lfoot -14.5141 14.784
ltoes -32.2136
477
root -9.87949 17.801 -4.69357 -374.516 81.8702 -394.895
lowerback 16.3213 0.087103 -4.16402
upperback 6.27208 -0.266127 -2.19087
thorax -2.44764 -0.0172169 0.0930264
lowerneck -17.067 2.68006 2.61152
upperneck 40.4263 5.09633 -0.206193
head 17.9951 2.78488 0.565543
rclavicle -3.26007e-014 -3.81667e-014
rhumerus -11.7961 28.6107 -95.9904
rradius 89.9029
rwrist -15.2989
rhand -45.5695 12.0045
rfingers 7.12502
rthumb -18.3315 -17.1517
lclavicle -3.26007e-014 -3.81667e-014
lhumerus 22.5927 -42.2382 64.1562
lradius 35.9514
lwrist -8.13834
lhand -38.8818 83.177
lfingers 7.12502
lthumb -11.8897 -472.819
rfemur -25.8941 4.37708 17.6057
rtibia 8.2267
rfoot 0.0711728 -7.94689
rtoes -21.8996
lfemur -32.2454 -5.98688 -8.22497
ltibia 26.4748
lfoot -14.5344 14.6115
ltoes -32.0639
478
root -9.88167 17.8027 -4.69408 -374.291 81.9009 -394.645
lowerback 16.2809 0.0037989 -4.32951
upperback 6.28147 -0.395325 -2.15375
thorax -2.40947 -0.0838531 0.248446
lowerneck -17.1943 2.73761 2.4898
upperneck 40.5783 5.2569 -0.233997
head 18.1176 2.82259 0.613326
rclavicle -2.78299e-014 -3.33958e-014
rhumerus -11.9267 28.986 -95.8484
rradius 89.6802
rwrist -15.4998
rhand -45.7033 11.9408
rfingers 7.12502
rthumb -18.4603 -17.2032
lclavicle -2.78299e-014 -3.33958e-014
lhumerus 22.5076 -41.7873 64.389
lradius 35.5238
lwrist -8.10217
lhand -38.9538 83.4616
lfingers 7.12502
lthumb -11.9591 -473.1
rfemur -25.8132 4.34269 17.5733
rtibia 8.13242
rfoot 0.0996853 -7.93751
rtoes -21.7156
lfemur -32.2162 -5.93748 -8.2992
ltibia 26.451
lfoot -14.5357 14.4736
ltoes -32.1417
479
root -9.88029 17.8039 -4.69326 -374.572 81.9356 -394.884
lowerback 16.1609 0.0457456 -4.17364
upperback 6.24616 -0.318185 -2.2862
thorax -2.38924 -0.0432332 0.0078399
lowerneck -16.9804 2.65911 2.63743
upperneck 40.6701 5.07261 -0.12586
head 18.1116 2.79622 0.598633
rclavicle 3.18055e-015 9.54166e-015
rhumerus -12.3098 28.6323 -95.9337
rradius 89.4716
rwrist -15.7262
rhand -45.8429 12.18
rfingers 7.12502
rthumb -18.5946 -16.9513
lclavicle 3.18055e-015 9.54166e-015
lhumerus 22.6497 -42.0426 64.3536
lradius 35.1388
lwrist -8.06902
lhand -38.8667 83.7125
lfingers 7.12502
lthumb -11.8752 -473.356
rfemur -25.6294 4.29106 17.6138
rtibia 7.91553
rfoot 0.154747 -7.92233
rtoes -21.7704
lfemur -32.1633 -5.94112 -8.29203
ltibia 26.4338
lfoot -14.6008 14.3837
ltoes -32.0811
480
root -9.87553 17.8062 -4.69481 -375.043 82.004 -395.294
lowerback 16.0376 0.0488928 -4.03915
upperback 6.23541 -0.291006 -2.35993
thorax -2.33849 -0.0285718 -0.149871
lowerneck -16.6873 2.64661 2.77376
upperneck 40.654 5.05134 -0.177475
head 18.0311 2.8097 0.539073
rclavicle 1.82882e-014 7.95139e-015
rhumerus -12.7773 28.3267 -95.9995
rradius 89.3732
rwrist -15.7803
rhand -46.022 12.5339
rfingers 7.12502
rthumb -18.7669 -16.5808
lclavicle 1.82882e-014 7.95139e-015
lhumerus 22.571 -41.8728 64.7564
lradius 34.6414
lwrist -8.44432
lhand -38.7469 83.7438
lfingers 7.12502
lthumb -11.7596 -473.394
rfemur -25.3712 4.19452 17.6562
rtibia 7.63565
rfoot 0.199898 -7.89787
rtoes -22.0518
lfemur -32.1022 -5.97367 -8.29241
ltibia 26.4221
lfoot -14.7062 14.3373
ltoes -31.8352
481
root -9.87104 17.8087 -4.69928 -375.571 82.0727 -395.73
lowerback 15.9866 0.0355035 -3.88686
upperback 6.2283 -0.285569 -2.40776
thorax -2.32143 -0.0239671 -0.286677
lowerneck -16.463 2.61704 2.90178
upperneck 40.6653 5.05467 -0.3428
head 17.9904 2.81448 0.43593
rclavicle 3.18055e-015 -9.54166e-015
rhumerus -13.3778 28.0745 -96.0348
rradius 89.5824
rwrist -15.7338
rhand -46.1188 12.8161
rfingers 7.12502
rthumb -18.86 -16.2896
lclavicle 3.18055e-015 -9.54166e-015
lhumerus 22.3394 -41.5765 65.329
lradius 34.2367
lwrist -8.89534
lhand -38.9066 84.0094
lfingers 7.12502
lthumb -11.9136 -473.65
rfemur -25.0814 4.08575 17.6991
rtibia 7.35368
rfoot 0.252614 -7.84913
rtoes -22.1347
lfemur -32.0029 -6.08892 -8.28081
ltibia 26.4022
lfoot -14.8126 14.353
ltoes -31.6685
482
root -9.86842 17.8091 -4.70375 -376.036 82.114 -396.113
lowerback 15.952 -0.0540734 -3.92369
upperback 6.27466 -0.400515 -2.36997
thorax -2.25057 -0.0821253 -0.206
lowerneck -16.5598 2.67028 2.90945
upperneck 40.7341 5.21078 -0.516456
head 18.0689 2.85039 0.388865
rclavicle -8.74653e-015 0
rhumerus -13.9459 28.2904 -95.9494
rradius 90.1137
rwrist -15.9068
rhand -46.0941 12.7862
rfingers 7.12502
rthumb -18.8362 -16.3218
lclavicle -8.74653e-015 0
lhumerus 21.99 -40.8586 65.9513
lradius 33.8846
lwrist -9.34182
lhand -39.2671 84.6342
lfingers 7.12502
lthumb -12.2612 -474.255
rfemur -24.8326 4.01575 17.7439
rtibia 7.1067
rfoot 0.320454 -7.813
rtoes -22.0676
lfemur -31.9063 -6.23484 -8.24084
ltibia 26.3739
lfoot -14.9079 14.4178
ltoes -31.797
